<svg width="512" height="521" viewBox="0 0 512 521" fill="none" xmlns="http://www.w3.org/2000/svg">
<path d="M264 0H280V500H264V0Z" fill="black"/>
<path d="M264 0H280V500H264V0Z" fill="black"/>
<path d="M331.875 204L344.489 213.844L279.614 296.975L267 287.131L331.875 204Z" fill="black"/>
<path d="M331.875 204L344.489 213.844L279.614 296.975L267 287.131L331.875 204Z" fill="black"/>
<path d="M327.773 213L343.773 213.117L343 318.564L327 318.446L327.773 213Z" fill="black"/>
<path d="M327.773 213L343.773 213.117L343 318.564L327 318.446L327.773 213Z" fill="black"/>
<path d="M335.773 353L351.773 353.117L351 458.564L335 458.446L335.773 353Z" fill="black"/>
<path d="M335.773 353L351.773 353.117L351 458.564L335 458.446L335.773 353Z" fill="black"/>
<path d="M340.078 447L351.37 458.335L295.3 514.193L284.008 502.858L340.078 447Z" fill="black"/>
<path d="M340.078 447L351.37 458.335L295.3 514.193L284.008 502.858L340.078 447Z" fill="black"/>
<path d="M405 431.195L420.999 431L421.451 468.085L405.452 468.28L405 431.195Z" fill="black"/>
<path d="M405 431.195L420.999 431L421.451 468.085L405.452 468.28L405 431.195Z" fill="black"/>
<path d="M415.105 431.027L415.098 447.027L343 447L343.006 431L415.105 431.027Z" fill="black"/>
<path d="M415.105 431.027L415.098 447.027L343 447L343.006 431L415.105 431.027Z" fill="black"/>
<path d="M410.078 457L421.37 468.335L370.292 519.22L359 507.885L410.078 457Z" fill="black"/>
<path d="M410.078 457L421.37 468.335L370.292 519.22L359 507.885L410.078 457Z" fill="black"/>
<path d="M265.078 125L276.37 136.335L225.292 187.22L214 175.885L265.078 125Z" fill="black"/>
<path d="M265.078 125L276.37 136.335L225.292 187.22L214 175.885L265.078 125Z" fill="black"/>
<path d="M197.344 188L209.6 198.286L110.256 316.653L98 306.367L197.344 188Z" fill="black"/>
<path d="M197.344 188L209.6 198.286L110.256 316.653L98 306.367L197.344 188Z" fill="black"/>
<path d="M341.283 184.207L330.154 195.702L269 136.495L280.129 125L341.283 184.207Z" fill="black"/>
<path d="M341.283 184.207L330.154 195.702L269 136.495L280.129 125L341.283 184.207Z" fill="black"/>
<path d="M274.695 488.706L263.627 500.261L215.603 454.258L226.671 442.704L274.695 488.706Z" fill="black"/>
<path d="M274.695 488.706L263.627 500.261L215.603 454.258L226.671 442.704L274.695 488.706Z" fill="black"/>
<path d="M443.456 281.77L432.326 293.265L352 215.495L363.129 204L443.456 281.77Z" fill="black"/>
<path d="M443.456 281.77L432.326 293.265L352 215.495L363.129 204L443.456 281.77Z" fill="black"/>
<path d="M381.22 401.79L367 394.454L428.535 275.166L442.754 282.501L381.22 401.79Z" fill="black"/>
<path d="M381.22 401.79L367 394.454L428.535 275.166L442.754 282.501L381.22 401.79Z" fill="black"/>
<path d="M231.593 453.939L215.593 454.031L214 176.092L230 176L231.593 453.939Z" fill="black"/>
<path d="M231.593 453.939L215.593 454.031L214 176.092L230 176L231.593 453.939Z" fill="black"/>
<path d="M186.489 135.349L176.345 122.976L310.126 13.3042L320.27 25.6778L186.489 135.349Z" fill="black"/>
<path d="M186.489 135.349L176.345 122.976L310.126 13.3042L320.27 25.6778L186.489 135.349Z" fill="black"/>
<path d="M320.298 77.9467L304.298 78.0384L304 26.0917L320 26L320.298 77.9467Z" fill="black"/>
<path d="M320.298 77.9467L304.298 78.0384L304 26.0917L320 26L320.298 77.9467Z" fill="black"/>
<path d="M192.476 188.106L176.476 188.198L176.103 123.011L192.102 122.919L192.476 188.106Z" fill="black"/>
<path d="M192.476 188.106L176.476 188.198L176.103 123.011L192.102 122.919L192.476 188.106Z" fill="black"/>
<path d="M98 307.284L110.257 297L210.02 415.899L197.763 426.183L98 307.284Z" fill="black"/>
<path d="M98 307.284L110.257 297L210.02 415.899L197.763 426.183L98 307.284Z" fill="black"/>
<path d="M352.106 352.316L341.837 364.585L265 300.269L275.27 288L352.106 352.316Z" fill="black"/>
<path d="M352.106 352.316L341.837 364.585L265 300.269L275.27 288L352.106 352.316Z" fill="black"/>
</svg>
